<svg width="12" height="12" viewBox="0 0 12 12" fill="none" xmlns="http://www.w3.org/2000/svg"><rect width="12" height="12" rx="3" transform="matrix(1 0 0 -1 0 12)" fill="#E8E8E8"/><g clip-path="url(#clip0)" fill="#000"><path d="M6.314 7.477c0 .301.246.546.547.546h.643a.547.547 0 00.547-.546v-.643a.547.547 0 00-.547-.547H6.86a.547.547 0 00-.547.547v.643zm.547-.643h.643v.643H6.86v-.643zm.916-1.189a.273.273 0 100-.547.273.273 0 000 .547zm-1.189 0a.273.273 0 100-.547.273.273 0 000 .547z"/><path d="M9.227 7.313a.273.273 0 00.273-.274V4.141c0-.603-.49-1.094-1.094-1.094h-.355v-.274a.273.273 0 10-.547 0v.274H6.26v-.274a.273.273 0 10-.547 0v.274h-1.23v-.274a.273.273 0 10-.547 0v.274h-.342c-.603 0-1.094.49-1.094 1.094v4.265c0 .603.49 1.094 1.094 1.094h4.812C9.01 9.5 9.5 9.01 9.5 8.406a.273.273 0 10-.547 0 .547.547 0 01-.547.547H3.594a.547.547 0 01-.547-.547V4.141c0-.302.245-.547.547-.547h.342v.273a.273.273 0 10.546 0v-.273h1.23v.273a.273.273 0 10.548 0v-.273h1.244v.273a.273.273 0 10.547 0v-.273h.355c.302 0 .547.245.547.547v2.898c0 .151.123.274.274.274z"/><path d="M4.209 8.023a.273.273 0 100-.546.273.273 0 000 .546zm0-2.378a.273.273 0 100-.547.273.273 0 000 .547zm0 1.189a.273.273 0 100-.547.273.273 0 000 .547zm1.189 0a.273.273 0 100-.547.273.273 0 000 .547zm0-1.189a.273.273 0 100-.547.273.273 0 000 .547zm0 2.378a.273.273 0 100-.546.273.273 0 000 .546z"/></g><defs><clipPath id="clip0"><path fill="#fff" transform="translate(2.5 2.5)" d="M0 0h7v7H0z"/></clipPath></defs></svg>