<svg width="12" height="12" viewBox="0 0 12 12" fill="none" xmlns="http://www.w3.org/2000/svg"><rect width="12" height="12" rx="3" transform="matrix(1 0 0 -1 0 12)" fill="#E8E8E8"/><path d="M10 6.75a.74.74 0 00-.217-.525.828.828 0 00.213-.636c-.039-.424-.42-.756-.869-.756H7.068c.102-.31.265-.877.265-1.333 0-.723-.614-1.333-1-1.333-.346 0-.593.195-.604.203a.167.167 0 00-.062.13v1.13l-.96 2.08-.04.02v-.063A.167.167 0 004.5 5.5H2.833A.834.834 0 002 6.333V9c0 .46.374.833.833.833h1c.36 0 .669-.23.785-.55.277.142.65.217.882.217h3.06c.363 0 .68-.245.755-.582a.752.752 0 00-.06-.5.747.747 0 00.334-1A.747.747 0 0010 6.75zm-.703.411a.167.167 0 00-.095.287.411.411 0 01-.238.713.167.167 0 00-.095.287c.11.104.153.249.12.398-.04.186-.221.32-.43.32H5.5c-.27 0-.725-.126-.882-.284A.167.167 0 004.333 9a.5.5 0 01-.5.5h-1a.5.5 0 01-.5-.5V6.333a.5.5 0 01.5-.5h1.5V6c0 .058.03.111.08.142a.17.17 0 00.162.007l.333-.167a.166.166 0 00.077-.079l1-2.166A.17.17 0 006 3.667V2.59a.71.71 0 01.333-.09c.183 0 .667.454.667 1 0 .587-.32 1.432-.322 1.44a.168.168 0 00.018.155.168.168 0 00.137.072h2.294c.278 0 .514.199.537.453a.498.498 0 01-.237.471.166.166 0 00.011.29.413.413 0 01-.141.78z" fill="#000"/><path d="M4.5 5.833A.167.167 0 004.333 6v3a.167.167 0 00.334 0V6a.167.167 0 00-.167-.167z" fill="#000"/></svg>