<svg width="12" height="12" viewBox="0 0 12 12" fill="none" xmlns="http://www.w3.org/2000/svg"><rect width="12" height="12" rx="3" transform="matrix(1 0 0 -1 0 12)" fill="#E8E8E8"/><g clip-path="url(#clip0)"><path d="M9.915 4.799L7.63 2.513a.275.275 0 00-.201-.085.274.274 0 00-.201.085.275.275 0 00-.085.201v1.143h-1c-2.122 0-3.424.6-3.906 1.8C2.079 6.054 2 6.55 2 7.142c0 .494.189 1.165.567 2.013a10.508 10.508 0 00.107.241.508.508 0 00.058.098c.036.051.078.076.125.076a.13.13 0 00.105-.044A.166.166 0 003 9.415a.91.91 0 00-.011-.118 7.536 7.536 0 01-.034-.654c0-.3.026-.57.078-.808a2.47 2.47 0 01.217-.618 1.53 1.53 0 01.357-.451c.146-.127.303-.23.471-.31.168-.081.366-.144.594-.19.228-.046.457-.078.687-.096.231-.018.492-.027.784-.027h1v1.143a.27.27 0 00.085.2.275.275 0 00.2.086.275.275 0 00.202-.085L9.915 5.2A.275.275 0 0010 5a.275.275 0 00-.085-.201z" fill="#000"/></g><defs><clipPath id="clip0"><path fill="#fff" transform="translate(2 2)" d="M0 0h8v8H0z"/></clipPath></defs></svg>