<svg width="12" height="12" viewBox="0 0 12 12" fill="none" xmlns="http://www.w3.org/2000/svg">
<rect width="12" height="12" rx="3" transform="matrix(1 0 0 -1 0 12)" fill="#E8E8E8"/>
<g clip-path="url(#clip0)">
<path d="M6.31445 7.47656C6.31445 7.77811 6.55978 8.02344 6.86133 8.02344H7.50391C7.80545 8.02344 8.05078 7.77811 8.05078 7.47656V6.83398C8.05078 6.53244 7.80545 6.28711 7.50391 6.28711H6.86133C6.55978 6.28711 6.31445 6.53244 6.31445 6.83398V7.47656ZM6.86133 6.83398H7.50391L7.50425 7.47655C7.50425 7.47655 7.50415 7.47656 7.50391 7.47656H6.86133V6.83398Z" fill="black"/>
<path d="M7.77734 5.64453C7.92836 5.64453 8.05078 5.52211 8.05078 5.37109C8.05078 5.22008 7.92836 5.09766 7.77734 5.09766C7.62633 5.09766 7.50391 5.22008 7.50391 5.37109C7.50391 5.52211 7.62633 5.64453 7.77734 5.64453Z" fill="black"/>
<path d="M6.58789 5.64453C6.73891 5.64453 6.86133 5.52211 6.86133 5.37109C6.86133 5.22008 6.73891 5.09766 6.58789 5.09766C6.43688 5.09766 6.31445 5.22008 6.31445 5.37109C6.31445 5.52211 6.43688 5.64453 6.58789 5.64453Z" fill="black"/>
<path d="M9.22656 7.3125C9.37758 7.3125 9.5 7.19008 9.5 7.03906V4.14062C9.5 3.53753 9.00934 3.04688 8.40625 3.04688H8.05078V2.77344C8.05078 2.62242 7.92836 2.5 7.77734 2.5C7.62632 2.5 7.50391 2.62242 7.50391 2.77344V3.04688H6.25977V2.77344C6.25977 2.62242 6.13735 2.5 5.98633 2.5C5.83531 2.5 5.71289 2.62242 5.71289 2.77344V3.04688H4.48242V2.77344C4.48242 2.62242 4.36 2.5 4.20898 2.5C4.05796 2.5 3.93555 2.62242 3.93555 2.77344V3.04688H3.59375C2.99066 3.04688 2.5 3.53753 2.5 4.14062V8.40625C2.5 9.00934 2.99066 9.5 3.59375 9.5H8.40625C9.00934 9.5 9.5 9.00934 9.5 8.40625C9.5 8.25523 9.37758 8.13281 9.22656 8.13281C9.07554 8.13281 8.95312 8.25523 8.95312 8.40625C8.95312 8.7078 8.7078 8.95312 8.40625 8.95312H3.59375C3.2922 8.95312 3.04688 8.7078 3.04688 8.40625V4.14062C3.04688 3.83908 3.2922 3.59375 3.59375 3.59375H3.93555V3.86719C3.93555 4.01821 4.05796 4.14062 4.20898 4.14062C4.36 4.14062 4.48242 4.01821 4.48242 3.86719V3.59375H5.71289V3.86719C5.71289 4.01821 5.83531 4.14062 5.98633 4.14062C6.13735 4.14062 6.25977 4.01821 6.25977 3.86719V3.59375H7.50391V3.86719C7.50391 4.01821 7.62632 4.14062 7.77734 4.14062C7.92836 4.14062 8.05078 4.01821 8.05078 3.86719V3.59375H8.40625C8.7078 3.59375 8.95312 3.83908 8.95312 4.14062V7.03906C8.95312 7.19008 9.07554 7.3125 9.22656 7.3125Z" fill="black"/>
<path d="M4.20898 8.02344C4.36 8.02344 4.48242 7.90102 4.48242 7.75C4.48242 7.59898 4.36 7.47656 4.20898 7.47656C4.05797 7.47656 3.93555 7.59898 3.93555 7.75C3.93555 7.90102 4.05797 8.02344 4.20898 8.02344Z" fill="black"/>
<path d="M4.20898 5.64453C4.36 5.64453 4.48242 5.52211 4.48242 5.37109C4.48242 5.22008 4.36 5.09766 4.20898 5.09766C4.05797 5.09766 3.93555 5.22008 3.93555 5.37109C3.93555 5.52211 4.05797 5.64453 4.20898 5.64453Z" fill="black"/>
<path d="M4.20898 6.83398C4.36 6.83398 4.48242 6.71156 4.48242 6.56055C4.48242 6.40953 4.36 6.28711 4.20898 6.28711C4.05797 6.28711 3.93555 6.40953 3.93555 6.56055C3.93555 6.71156 4.05797 6.83398 4.20898 6.83398Z" fill="black"/>
<path d="M5.39844 6.83398C5.54945 6.83398 5.67188 6.71156 5.67188 6.56055C5.67188 6.40953 5.54945 6.28711 5.39844 6.28711C5.24742 6.28711 5.125 6.40953 5.125 6.56055C5.125 6.71156 5.24742 6.83398 5.39844 6.83398Z" fill="black"/>
<path d="M5.39844 5.64453C5.54945 5.64453 5.67188 5.52211 5.67188 5.37109C5.67188 5.22008 5.54945 5.09766 5.39844 5.09766C5.24742 5.09766 5.125 5.22008 5.125 5.37109C5.125 5.52211 5.24742 5.64453 5.39844 5.64453Z" fill="black"/>
<path d="M5.39844 8.02344C5.54945 8.02344 5.67188 7.90102 5.67188 7.75C5.67188 7.59898 5.54945 7.47656 5.39844 7.47656C5.24742 7.47656 5.125 7.59898 5.125 7.75C5.125 7.90102 5.24742 8.02344 5.39844 8.02344Z" fill="black"/>
</g>
<defs>
<clipPath id="clip0">
<rect width="7" height="7" fill="white" transform="translate(2.5 2.5)"/>
</clipPath>
</defs>
</svg>
