<svg width="12" height="12" viewBox="0 0 12 12" fill="none" xmlns="http://www.w3.org/2000/svg">
<rect width="12" height="12" rx="3" transform="matrix(1 0 0 -1 0 12)" fill="#E8E8E8"/>
<path d="M10 6.75008C10 6.54975 9.92033 6.36308 9.783 6.2254C9.93867 6.05508 10.018 5.82673 9.99633 5.58908C9.95733 5.1654 9.57566 4.8334 9.127 4.8334H7.068C7.17 4.52373 7.33333 3.95608 7.33333 3.50008C7.33333 2.77708 6.719 2.16675 6.33333 2.16675C5.98733 2.16675 5.73966 2.36175 5.72933 2.36975C5.68966 2.40142 5.66666 2.44942 5.66666 2.50008V3.6304L4.70633 5.71008L4.66666 5.7304V5.66673C4.66666 5.57473 4.59198 5.50006 4.49998 5.50006H2.83333C2.37367 5.50008 2 5.87375 2 6.3334V9.00008C2 9.45975 2.37367 9.8334 2.83333 9.8334H3.83333C4.19366 9.8334 4.50166 9.6034 4.61766 9.2824C4.895 9.42508 5.26833 9.50008 5.5 9.50008H8.55967C8.92267 9.50008 9.24034 9.2554 9.315 8.91808C9.35333 8.74408 9.331 8.56908 9.255 8.41708C9.501 8.2934 9.66667 8.03908 9.66667 7.75008C9.66667 7.63208 9.63967 7.51908 9.58867 7.41708C9.83467 7.29308 10 7.03908 10 6.75008ZM9.297 7.1614C9.23267 7.16908 9.17833 7.21273 9.15767 7.2744C9.13734 7.33608 9.15434 7.40373 9.20167 7.4484C9.28634 7.52808 9.33334 7.6354 9.33334 7.75008C9.33334 7.9604 9.17434 8.13708 8.96402 8.1614C8.89969 8.16908 8.84534 8.21273 8.82469 8.2744C8.80436 8.33608 8.82136 8.40373 8.86869 8.4484C8.97836 8.55173 9.02236 8.69673 8.98936 8.84608C8.94836 9.03208 8.76769 9.16675 8.55969 9.16675H5.5C5.22933 9.16675 4.77533 9.03975 4.618 8.88208C4.57033 8.83475 4.49833 8.82075 4.43633 8.84608C4.374 8.87175 4.33333 8.93275 4.33333 9.00008C4.33333 9.27575 4.109 9.50008 3.83333 9.50008H2.83333C2.55766 9.50008 2.33333 9.27575 2.33333 9.00008V6.3334C2.33333 6.05773 2.55766 5.8334 2.83333 5.8334H4.33333V6.00008C4.33333 6.05775 4.36333 6.1114 4.41266 6.14208C4.46133 6.1714 4.52266 6.1744 4.57466 6.14908L4.90798 5.9824C4.94166 5.96573 4.96866 5.93773 4.98466 5.9034L5.98466 3.73673C5.99466 3.71473 5.99998 3.69073 5.99998 3.66673V2.5904C6.06933 2.55208 6.18967 2.50008 6.33333 2.50008C6.516 2.50008 7 2.95408 7 3.50008C7 4.08675 6.68067 4.9324 6.67767 4.94075C6.65834 4.99175 6.665 5.04942 6.696 5.09475C6.72733 5.13975 6.77867 5.16675 6.83333 5.16675H9.127C9.405 5.16675 9.641 5.36575 9.66433 5.61975C9.682 5.80975 9.59066 5.99042 9.427 6.09142C9.376 6.12275 9.34567 6.17942 9.348 6.23975C9.35033 6.30008 9.385 6.35408 9.43833 6.38175C9.57933 6.45342 9.66666 6.59475 9.66666 6.75008C9.66667 6.9604 9.50767 7.13708 9.297 7.1614Z" fill="black"/>
<path d="M4.50017 5.83325C4.40817 5.83325 4.3335 5.90792 4.3335 5.99992V8.99993C4.3335 9.09193 4.40817 9.1666 4.50017 9.1666C4.59217 9.1666 4.66684 9.09193 4.66684 8.99993V5.99992C4.66684 5.90792 4.59217 5.83325 4.50017 5.83325Z" fill="black"/>
</svg>
