<svg width="12" height="12" viewBox="0 0 12 12" fill="none" xmlns="http://www.w3.org/2000/svg">
<rect width="12" height="12" rx="3" transform="matrix(1 0 0 -1 0 12)" fill="#E8E8E8"/>
<g clip-path="url(#clip0)">
<path d="M9.91525 4.79901L7.6295 2.51331C7.57294 2.45675 7.50601 2.42847 7.42862 2.42847C7.35124 2.42847 7.28425 2.45675 7.22774 2.51331C7.17118 2.5699 7.14287 2.63687 7.14287 2.71424V3.85709H6.14287C4.02076 3.85709 2.71874 4.4568 2.23653 5.65621C2.07884 6.05497 2 6.55056 2 7.14282C2 7.63684 2.189 8.30795 2.56696 9.1562C2.57587 9.17707 2.59145 9.21271 2.61381 9.26329C2.63615 9.31384 2.65621 9.35849 2.67407 9.39722C2.69199 9.43585 2.71135 9.4686 2.73216 9.49535C2.76784 9.54597 2.80953 9.57133 2.85716 9.57133C2.9018 9.57133 2.93678 9.55646 2.96209 9.5267C2.98735 9.49696 3 9.45972 3 9.41518C3 9.38832 2.99627 9.34895 2.98882 9.29683C2.98137 9.24471 2.97764 9.20983 2.97764 9.19194C2.96273 8.98964 2.95529 8.80646 2.95529 8.64289C2.95529 8.34231 2.98137 8.07295 3.03341 7.83487C3.08553 7.59675 3.15769 7.39069 3.24998 7.21657C3.34225 7.04238 3.46125 6.89219 3.60713 6.76569C3.75294 6.63919 3.90991 6.5358 4.07806 6.45543C4.24625 6.37505 4.44416 6.3118 4.67184 6.26568C4.89951 6.21956 5.12866 6.18755 5.35934 6.16968C5.59003 6.1518 5.85119 6.14292 6.14287 6.14292H7.14287V7.2858C7.14287 7.36317 7.17112 7.43016 7.22763 7.48668C7.28423 7.54318 7.35117 7.5715 7.42851 7.5715C7.50588 7.5715 7.57287 7.54318 7.6295 7.48668L9.9152 5.20091C9.97176 5.14435 10 5.07741 10 5.00003C10 4.92266 9.97176 4.85567 9.91525 4.79901Z" fill="black"/>
</g>
<defs>
<clipPath id="clip0">
<rect width="8" height="8" fill="white" transform="translate(2 2)"/>
</clipPath>
</defs>
</svg>
