<svg width="34" height="17" viewBox="0 0 34 17" fill="none" xmlns="http://www.w3.org/2000/svg"><mask id="a" maskUnits="userSpaceOnUse" x="0" y="0" width="34" height="17"><path d="M18.63.658v.446h13.204v14.911l-.041.05a.932.932 0 01-.595.302l-.078.006v.175h2.31v-.175l-.072-.006a.898.898 0 01-.578-.278l-.064-.068V.212H18.63v.446z" fill="#fff"/><path d="M23.497 2.18c-.638.148-.898.197-1.17.222a1.022 1.022 0 00-.121.017c-.015.005-.017.02-.017.113v.107l.038.015c.054.02.124.034.234.046.245.026.314.15.354.645.01.138.004 1.276-.008 1.339l-.004.026-.096-.064a1.707 1.707 0 00-.595-.247 2.687 2.687 0 00-1.097.08c-.253.083-.495.245-.734.492a1.858 1.858 0 00-.523.978c-.018.1-.021.15-.021.345 0 .318.033.53.125.798.09.264.195.436.384.625.28.283.55.432.882.49.316.055.724.04.996-.04.164-.047.303-.11.554-.255a.98.98 0 01.163-.083c.004.004.008.12.01.254l.003.247.045.007c.068.01.106 0 .24-.065.145-.068.206-.09.371-.13a4.5 4.5 0 01.515-.089c.204-.026.395-.064.405-.081a.266.266 0 00.02-.165c-.015-.058-.007-.055-.2-.071a1.459 1.459 0 01-.367-.06l-.027-.011-.007-.2a215.57 215.57 0 01-.005-3.13c.002-.111.001-.418-.002-.683-.003-.265-.01-.691-.012-.947a8.478 8.478 0 00-.016-.512c-.017-.074-.045-.075-.317-.012zM22.14 4.753c.378.096.615.4.664.848.018.185.031.751.028 1.323l-.003.57-.074.042a1.92 1.92 0 01-.376.16.741.741 0 01-.244.026c-.166 0-.252-.013-.391-.056a1.224 1.224 0 01-.792-.806 2.302 2.302 0 01-.1-.71c0-.41.12-.813.326-1.086a.82.82 0 01.55-.327c.102-.02.305-.012.412.016zM18.348 2.22c-.298.192-.831.38-1.236.436-.042.005-.047.008-.053.036a.594.594 0 000 .122c.008.11-.007.1.186.114.16.011.206.021.3.065.069.031.071.032.083.08.022.085.03.154.04.306.015.249.034 3.804.021 4.03-.012.242-.036.342-.093.404-.029.03-.125.059-.304.086-.158.025-.204.037-.277.074-.037.02-.04.024-.036.053.003.018.008.067.012.11l.006.079.238-.006c.132-.003.3-.011.374-.018.09-.01.297-.013.62-.012.43 0 .6.005 1.034.029l.11.006V8.11a.48.48 0 00-.022-.183 3.527 3.527 0 00-.245-.034 3.108 3.108 0 01-.276-.04.177.177 0 01-.122-.115l-.022-.058-.007-1.908a213.336 213.336 0 00-.025-3.378l-.007-.22h-.231l-.068.044zM5.08 2.338a11.724 11.724 0 01-1.718 0l-.175-.008-.005.034a2.678 2.678 0 00-.012.14l-.006.105.034.007c.1.022.318.089.38.119.14.064.175.118.385.59.134.302.152.346.578 1.363.253.604.359.869.356.887-.006.032-.425.888-.589 1.207-.085.164-.127.236-.133.226a774.724 774.724 0 01-1.247-2.91 30.794 30.794 0 01-.462-1.158.388.388 0 01-.024-.088c0-.04.088-.118.204-.18.158-.086.148-.074.168-.2.027-.167.08-.154-.497-.127-.436.02-.502.021-.808.01a23.417 23.417 0 01-.496-.023.695.695 0 00-.203.002l-.043.012.006.066.012.143.007.079.095.041c.053.023.11.05.126.063.04.03.113.145.205.329.1.2.047.075.882 2.032.4.935.78 1.816.843 1.958.22.486.402.924.496 1.19l.042.118h.469l.096-.208c.053-.115.179-.374.28-.575.184-.365.777-1.499.793-1.516a.675.675 0 01.083.144 67.889 67.889 0 01.795 1.834c.037.083.078.19.093.237l.027.084.234.003.233.002.03-.076c.26-.672.66-1.691.851-2.164.156-.386.197-.487.412-.996.268-.64.485-1.184.736-1.85.11-.289.148-.376.191-.433a1.02 1.02 0 01.261-.175c.096-.045.114-.077.112-.2-.002-.123-.005-.129-.062-.137a2.668 2.668 0 00-.27.004c-.18.01-.288.008-.567-.005-.397-.018-.414-.016-.434.043a.62.62 0 00-.003.213c.008.049.03.06.247.125.092.028.171.054.175.058a.174.174 0 01.015.059c.005.045-.003.075-.066.267-.04.12-.26.691-.486 1.272a381.43 381.43 0 00-.685 1.767c-.149.391-.274.712-.277.712a.536.536 0 01-.04-.088c-.086-.205-.56-1.317-.71-1.665l-.165-.379.028-.062c.054-.12.64-1.294.729-1.46.145-.267.21-.347.335-.403.067-.03.372-.134.467-.157.036-.01.054-.02.06-.034a1.05 1.05 0 00.012-.239c-.005-.008-.142-.013-.453-.017-.245-.003-.625-.01-.846-.018a6.337 6.337 0 00-.405-.005.636.636 0 00-.016.21l.006.07.12.034c.193.052.277.086.328.13l.046.041-.006.05c-.008.06-.09.27-.183.473-.12.262-.432.902-.438.902-.01 0-.128-.282-.294-.7a13.222 13.222 0 00-.176-.426c-.079-.172-.103-.315-.064-.38.029-.046.084-.067.228-.085.174-.023.207-.032.22-.063a.774.774 0 00.006-.145l-.003-.12h-.064a8.392 8.392 0 00-.407.02zm20.717.451v.446h4.788v-.892h-4.788v.446z" fill="#fff"/><path d="M25.8 7.766v.446h4.788V7.32H25.8v.446z" fill="#858A9C"/><path d="M14.987 4.147l-.089.006-.063.079c-.178.227-.255.302-.443.43a1.464 1.464 0 01-.552.235l-.086.017.004.04.01.098c.008.07.04.11.105.127.104.026.245.073.289.095.092.046.103.093.128.475.018.276.018 1.762 0 1.873-.014.092-.017.097-.133.155a1.314 1.314 0 01-.289.109c-.142.038-.191.066-.2.113a.614.614 0 00.007.177c.003.004.17 0 .371-.009.678-.028.736-.028 1.2-.006.24.012.536.021.657.021h.22l.011-.028a.355.355 0 00-.005-.204c-.035-.052-.073-.062-.385-.1-.263-.03-.358-.088-.417-.249-.02-.056-.022-.076-.028-.638a58.23 58.23 0 00-.02-.917c-.012-.366-.01-.4.036-.54.07-.208.19-.358.289-.357.04 0 .107.034.196.099a.84.84 0 00.287.149.438.438 0 00.462-.126c.163-.18.206-.444.102-.642a.746.746 0 00-.262-.246.615.615 0 00-.541-.005c-.084.04-.29.222-.358.312-.027.037-.09.134-.141.216-.05.081-.096.153-.101.159-.006.005-.009-.143-.007-.412a9.1 9.1 0 00-.005-.469l-.008-.046-.076.002a5.525 5.525 0 00-.165.007zm-4.178.18c-.25.021-.456.07-.651.153a1.9 1.9 0 00-1.18 1.873c.008.334.05.551.152.796.084.201.179.338.364.523.36.36.762.555 1.265.619.143.019.412.024.554.01.768-.068 1.302-.41 1.635-1.051.147-.282.204-.552.205-.976 0-.283-.012-.365-.085-.596a1.851 1.851 0 00-.484-.796c-.311-.313-.646-.476-1.12-.542a4.604 4.604 0 00-.655-.013zm.49.325c.3.08.521.295.638.626.076.217.102.414.108.845.01.728-.037 1.072-.191 1.39a.82.82 0 01-.386.407c-.134.064-.2.077-.386.077a.841.841 0 01-.408-.078.742.742 0 01-.382-.353c-.123-.253-.16-.43-.199-.982-.02-.288.009-.924.053-1.14.092-.464.355-.75.747-.811.098-.015.315-.005.406.019zm14.498.62v.441h4.788v-.882h-4.788v.441zM2.665 10.2c-.481.038-.825.144-1.135.349-.11.073-.34.302-.429.428a1.74 1.74 0 00-.273 1.336c.059.274.208.588.378.8.254.316.586.5 1.504.833.632.23.925.367 1.079.504.13.118.25.312.285.457a.943.943 0 01-.004.373 1.015 1.015 0 01-.368.533c-.246.183-.68.289-1.022.25a1.471 1.471 0 01-.538-.161 1.223 1.223 0 01-.34-.257c-.158-.168-.239-.305-.415-.708a4.333 4.333 0 00-.095-.207 1.664 1.664 0 00-.223-.001l-.214.007.006.235c.003.129.013.425.021.66.017.47.018.475.081.517a.538.538 0 00.09.043c.106.04.73.22.83.239.443.087.844.1 1.263.043.38-.053.713-.2 1.096-.484.318-.236.475-.473.58-.873.114-.444.097-.968-.045-1.304a1.943 1.943 0 00-.472-.62c-.259-.214-.709-.43-1.253-.6-.674-.21-.98-.375-1.175-.633a.774.774 0 01-.058-.88c.042-.071.183-.215.262-.266.294-.192.766-.217 1.094-.059.26.126.43.297.57.58a5.222 5.222 0 01.219.543c.006.007.39.032.413.027.023-.006.028-.013.035-.053.032-.186-.036-.975-.112-1.311l-.016-.068-.154-.051a4.316 4.316 0 00-1.222-.222 5.574 5.574 0 00-.243 0zm24.773.023c-.006.005-.162.086-.347.18a5.16 5.16 0 01-.575.263l-.238.091v.222l.164.062c.273.104.316.123.33.153.041.076.041.107.04 2.306 0 1.947-.008 2.695-.03 2.946l-.006.082h.24l.084-.137c.178-.29.256-.414.268-.432.013-.018.024-.013.21.096.317.184.525.279.752.343.206.058.273.066.55.065.384-.001.576-.028.782-.11.308-.121.556-.288.795-.536.39-.401.62-1.054.584-1.655a1.716 1.716 0 00-.134-.613 1.83 1.83 0 00-.438-.66 1.69 1.69 0 00-.582-.365 2.273 2.273 0 00-.863-.09c-.234.027-.375.072-.644.203-.2.098-.322.185-.499.356l-.061.06.006-.252c.003-.139 0-.597-.006-1.016-.005-.42-.011-.94-.011-1.158v-.394l-.025-.01a1.614 1.614 0 00-.346 0zm1.438 2.801c.309.05.584.23.753.49.127.196.228.48.267.745a2.95 2.95 0 01-.05.877c-.04.17-.13.386-.21.507-.05.076-.19.222-.257.267a1.188 1.188 0 01-.686.199.965.965 0 01-.64-.304.642.642 0 01-.183-.422c-.028-.243-.046-1.074-.035-1.654l.007-.403.048-.035c.097-.072.367-.193.528-.238.159-.045.306-.054.458-.029zM10.977 10.25a.559.559 0 00-.38.293.544.544 0 00-.056.274c0 .187.054.314.193.454.11.11.214.167.337.185a.617.617 0 00.513-.186.736.736 0 00.163-.303.704.704 0 00-.004-.329.64.64 0 00-.351-.356.784.784 0 00-.415-.032zm4.095.22v.177l.057.016c.03.009.128.03.215.046.32.062.348.068.403.088a.386.386 0 01.227.309c.026.191.097 2.367.109 3.355.015 1.238.015 1.18-.004 1.262-.016.066-.021.074-.059.098a2.9 2.9 0 01-.51.208l-.25.085-.006.035c-.008.04.002.276.012.292.008.012.099.006.366-.027a9.934 9.934 0 012.007-.025c.353.028.51.034.593.022a.588.588 0 00.076-.014 1.15 1.15 0 00.015-.102.754.754 0 00-.014-.27c-.002-.002-.2-.027-.438-.057l-.466-.06-.03-.005-.012-.146a28.546 28.546 0 01-.011-1.162c0-.559-.005-1.063-.01-1.12a2.521 2.521 0 01-.002-.233c.002-.071-.003-.615-.013-1.207l-.017-1.08.029-.055c.024-.051.034-.06.092-.089.089-.043.195-.063.381-.069.297-.01.593.053.785.166.17.1.342.35.413.594.05.175.06.265.06.526 0 .256-.012.35-.064.51-.118.356-.41.587-.81.64a2.895 2.895 0 01-.482-.007l-.038-.006.007.152c.01.233.006.223.095.274.423.239 1.04.287 1.537.122.12-.04.274-.112.373-.176.25-.157.493-.427.622-.69.18-.37.235-.88.133-1.23a2.178 2.178 0 00-.418-.77c-.208-.238-.489-.385-.904-.475a4.846 4.846 0 00-1.12-.06c-.443.033-.722.042-1.274.047-.59.005-.608.004-1.06-.025a37.185 37.185 0 01-.528-.037l-.067-.006v.178zm-3.847 1.833c-.18.163-.324.26-.495.336a2.402 2.402 0 01-.786.182c-.016 0-.018.013-.018.133v.133l.073.007c.227.02.366.05.457.096.126.064.138.083.15.226.008.115.012 1.866.004 2.156-.01.314-.016.353-.073.407a.29.29 0 01-.09.056c-.028.01-.168.033-.311.053a5.703 5.703 0 00-.265.037c-.001.001 0 .07.003.154l.006.15h.036c.02 0 .107-.007.194-.015.225-.021.84-.028 1.308-.014l.64.017.245.006.005-.098c.012-.17.016-.158-.049-.176a1.95 1.95 0 00-.152-.032 4.337 4.337 0 01-.412-.085l-.06-.019-.008-.075c-.01-.12-.006-.51.01-1.421.015-.812.014-1.752-.003-2.15l-.005-.15h-.31l-.094.086zm-3.43.108c-.802.059-1.44.412-1.85 1.021a2.22 2.22 0 00-.352 1.143c0 .363.135.821.324 1.106.276.414.81.72 1.437.823.15.025.524.025.694.001.47-.068.83-.243 1.13-.547a1.36 1.36 0 00.321-.502l.03-.087-.042-.035a.887.887 0 00-.144-.087l-.102-.05-.023.024-.178.2c-.127.145-.17.185-.241.233-.247.166-.375.204-.696.204a1.101 1.101 0 01-.268-.018c-.252-.054-.454-.171-.664-.382-.263-.263-.399-.544-.463-.952a3.014 3.014 0 01.005-.708c.056-.308.177-.54.384-.74.11-.107.195-.166.313-.223a.807.807 0 01.4-.088c.118 0 .148.004.197.022.164.06.268.18.358.413.043.11.11.232.167.303a.682.682 0 00.27.19c.09.03.257.033.341.004a.455.455 0 00.303-.359c.044-.21-.007-.368-.178-.547-.212-.223-.483-.323-.967-.359a5.37 5.37 0 00-.506-.003zm13.225.196l-.035.013-.012.088c-.017.135-.016.176.006.196.027.025.12.052.318.091.095.02.185.042.2.05.02.01.032.029.048.081.031.101.037.525.014 1.068-.021.506-.016 1.174.01 1.36.035.243.09.393.19.526.165.215.427.367.732.425.149.027.418.025.567-.005.336-.067.63-.234 1.023-.583.073-.065.143-.125.156-.135l.024-.019v.109c0 .06.003.229.007.377l.006.267.09.007.09.006.181-.064c.333-.12.826-.26.999-.283.038-.005.117-.013.175-.015l.106-.008.007-.053a1.03 1.03 0 00-.002-.145l-.009-.092h-.259c-.292 0-.28.003-.324-.08-.023-.044-.023-.05-.014-.485.01-.337.017-2.586.011-2.652l-.005-.054h-.79c-.435 0-.817.005-.85.009l-.06.008-.008.051c-.014.124 0 .238.033.265.015.012.049.019.117.024.31.02.418.038.509.084l.037.019.007.43c.006.34.003.574-.014 1.135-.023.797-.012.715-.11.854a.998.998 0 01-.262.255c-.207.146-.33.203-.49.226-.38.058-.657-.053-.783-.314a.53.53 0 01-.055-.193c-.033-.244-.038-.466-.032-1.67l.005-1.176-.045-.006a26.44 26.44 0 00-.76-.005c-.549 0-.723.003-.75.013z" fill="#fff"/></mask><g mask="url(#a)"><path d="M35-2H-4v23h39V-2z" fill="#0D1D47"/><path d="M31 4h-6v3h6V4z" fill="#545B74"/><path d="M31 7h-6v2h6V7z" fill="#858A9C"/></g></svg>