<svg width="253" height="422" viewBox="0 0 253 422" fill="none" xmlns="http://www.w3.org/2000/svg"><g opacity=".2" fill-rule="evenodd" clip-rule="evenodd"><path d="M128.279 39.553c4.883-5.732 8.188-12.756 7.635-20.626-1.591-22.678-33.159-17.689-39.3-6.243-6.14 11.445-5.41 40.478 2.526 42.524 3.165.816 9.907-1.183 16.769-5.319l-4.307 30.472h25.432l-8.755-40.808z" fill="#B28B67"/><path d="M114.637 21.431c-.973 13.561-3.549 20.341-7.725 20.341-6.266 0-11.582-3.977-14.331-3.977-2.004 0-1.557 2.508-.228 4.367 1.095 1.534 6.433 3.013 6.433 5.391 0 2.379-4.217.539-4.217 1.95 0 2.333-.741 6.72 3.308 6.72 4.099 0 15.849-1.494 17.863-7.577 1.3-3.925 2.14-12.06 2.521-24.403a6.358 6.358 0 015.201 10.862 96.432 96.432 0 005.009 6.484c7.098-4.259 12.365-16.724 5.425-28.7-1.918-5.866-6.26-9-11.388-10.454-4.154-1.738-8.466-1.934-12.106-.892-7.136.612-13.508 2.788-15.314 4.08 0 6.756 1.31 8.76 12.49 8.583 2.747 1.451 4.859 3.95 7.059 7.225zm30.875 146.883l-38.419 134.819-28.03 99.369H58.618l29.787-234.188h57.107z" fill="#191847"/><path d="M155.785 168.314c.889 69.487 3.919 107.388 4.852 113.701.933 6.313 15.041 46.476 42.323 120.487h-21.179c-34.732-71.001-54.121-111.164-58.165-120.487-4.045-9.323-16.527-47.224-35.327-113.701h67.496z" fill="#2F3676"/><path d="M204.854 421.576l-1.06-22.253h-22.253c-10.552 7.418-24.328 13.423-41.328 18.015v4.238h40.268l13.776-2.119v2.119h10.597zm-122.922 0l-1.06-22.253H58.619c-10.552 7.418-24.328 13.423-41.328 18.015v4.238H57.56l13.776-2.119v2.119h10.597z" fill="#191847"/><path d="M56.118 150.946L24.13 178.065c-8.973 3.107-16.399 6.712-22.278 10.814-1.357 1.422-2.922 4.219 3.057 3.336 5.979-.882 12.307-1.542 13.28.451.973 1.992-2.494 4.698-.623 7.347 1.246 1.766 6.204-3.227 14.872-14.981l32.422-16.181-8.742-17.905zm144.849-11.735l-18.769 2.726c20.147 43.711 30.947 66.828 32.402 69.351 3.274 5.676-.576 15.563-2.081 20.797 7.607 2.196 5.177-9.556 14.795-6.625 8.78 2.676 16.024 8.741 24.719 1.529 1.069-.887 1.97-3.787-1.428-5.476-8.465-4.209-20.894-11.911-22.826-14.75-2.634-3.871-11.572-26.388-26.812-67.552z" fill="#B28B67"/><path d="M122.521 62.698l-11.63-3.846c-15.776 39.41-39.304 77.54-78.614 109.748l9.72 16.771c34.549-20.351 67.253-36.16 80.524-66.698 4.454-10.249.363-43.72 0-55.975z" fill="#C5CFD6"/><path d="M162.466 173.612c-33.315 3.532-59.537 3.532-78.667 0-2.37-.438-2.743-4.406-1.644-7.099 17.116-41.938 28.853-78.532 28.853-107.66 3.14 1.582 8.637 1.82 16.489.71 21.102 30.02 30.802 64.463 34.969 114.049z" fill="#323337"/><path d="M132.743 57.048h-8.794c-2.048 12.043-8.506 175.125-28.444 228.472h107.88c-2.339-48.87-20.788-107.576-39.477-156.702 16.526 15.123 30.929 40.747 43.211 76.874l20.207-5.187c-15.025-64.743-45.915-112.329-92.672-142.758l-.303-.699h-.778c-.286-.184-.573-.367-.861-.55l.031.55z" fill="#DDE3E9"/></g></svg>